{
    "asset" : {
        "generator" : "Khronos glTF Blender I/O v1.0.5",
        "version" : "2.0"
    },
    "scene" : 0,
    "scenes" : [
        {
            "name" : "Scene",
            "nodes" : [
                0
            ]
        }
    ],
    "nodes" : [
        {
            "mesh" : 0,
            "name" : "Cylinder"
        }
    ],
    "meshes" : [
        {
            "name" : "Cylinder",
            "primitives" : [
                {
                    "attributes" : {
                        "POSITION" : 0,
                        "NORMAL" : 1,
                        "TEXCOORD_0" : 2
                    },
                    "indices" : 3
                }
            ]
        }
    ],
    "accessors" : [
        {
            "bufferView" : 0,
            "componentType" : 5126,
            "count" : 1650,
            "max" : [
                9.999547004699707,
                2.1100001335144043,
                9.998187065124512
            ],
            "min" : [
                -9.999547004699707,
                -2.1100001335144043,
                -10
            ],
            "type" : "VEC3"
        },
        {
            "bufferView" : 1,
            "componentType" : 5126,
            "count" : 1650,
            "type" : "VEC3"
        },
        {
            "bufferView" : 2,
            "componentType" : 5126,
            "count" : 1650,
            "type" : "VEC2"
        },
        {
            "bufferView" : 3,
            "componentType" : 5123,
            "count" : 2958,
            "type" : "SCALAR"
        }
    ],
    "bufferViews" : [
        {
            "buffer" : 0,
            "byteLength" : 19800,
            "byteOffset" : 0
        },
        {
            "buffer" : 0,
            "byteLength" : 19800,
            "byteOffset" : 19800
        },
        {
            "buffer" : 0,
            "byteLength" : 13200,
            "byteOffset" : 39600
        },
        {
            "buffer" : 0,
            "byteLength" : 5916,
            "byteOffset" : 52800
        }
    ],
    "buffers" : [
        {
            "byteLength" : 58716,
            "uri" : "data:application/octet-stream;base64,"
        }
    ]
}
